<svg xmlns="http://www.w3.org/2000/svg" width="24" height="32" viewBox="0 0 24 32"><g><g><path fill="#7f7f7f" d="M24 2.821v16.394a.54.54 0 0 1-.545.533.54.54 0 0 1-.545-.533V3.458a15.622 15.622 0 0 1-10.473-2.044l-.436-.261-.437.261A15.633 15.633 0 0 1 1.092 3.458v15.757a10.614 10.614 0 0 0 1.51 5.457c1.13 1.902 2.849 3.401 4.909 4.285L12 30.881l4.492-1.925c.24-.105.475-.216.706-.335a.552.552 0 0 1 .738.22.528.528 0 0 1-.226.722c-.255.132-.515.256-.78.369l-4.712 2.02a.56.56 0 0 1-.436 0l-4.71-2.02a11.593 11.593 0 0 1-5.412-4.72 11.664 11.664 0 0 1-1.66-5.996V2.821a.546.546 0 0 1 .654-.525c3.555.712 7.253.073 10.341-1.789l.72-.433a.558.558 0 0 1 .57 0l.72.433A14.522 14.522 0 0 0 23.345 2.3a.54.54 0 0 1 .655.523zm-12.267 1.9a13.274 13.274 0 0 1-8.46 1.618v12.11a7.843 7.843 0 0 0 1.21 4.17 8.342 8.342 0 0 0 3.938 3.288.528.528 0 0 1 .292.698.549.549 0 0 1-.714.285 9.41 9.41 0 0 1-4.447-3.712 8.889 8.889 0 0 1-1.37-4.73V5.707a.545.545 0 0 1 .654-.523c2.862.551 5.83.06 8.347-1.38.013-.01.027-.018.041-.026a.552.552 0 0 1 .737.223.528.528 0 0 1-.228.72z"/></g><g><path fill="#ffb400" d="M20.551 12.639l-9.262 9.067a.544.544 0 0 1-.385.156.544.544 0 0 1-.385-.156L6.161 17.44a.527.527 0 0 1 0-.756l2.179-2.133a.555.555 0 0 1 .77 0l1.794 1.757 6.698-6.557a.552.552 0 0 1 .77 0l2.18 2.134a.525.525 0 0 1 0 .754zm-1.153-.377l-1.411-1.38-6.694 6.558a.554.554 0 0 1-.77 0l-1.798-1.757-1.407 1.379 3.586 3.513z"/></g></g></svg>