<svg xmlns="http://www.w3.org/2000/svg" width="33" height="32" viewBox="0 0 33 32"><g><g><path d="M12.947 30.618c-3.16-1.527-5.931-3.698-8.231-6.44-1.89-2.28-3.168-4.41-4.015-6.703-.35-.95-.807-2.387-.68-3.933.082-.97.478-1.81 1.164-2.501l1.789-1.789c.558-.538 1.204-.814 1.87-.814.672 0 1.31.283 1.842.814.323.302.659.638.975.968.161.162.323.33.484.492l1.426 1.425c.565.564.86 1.217.86 1.889 0 .672-.295 1.325-.86 1.89l-.444.442c-.37.377-.753.76-1.157 1.136.303.652.733 1.332 1.365 2.125 1.332 1.64 2.73 2.918 4.27 3.894.149.093.324.18.505.276.108.051.222.106.33.167l1.587-1.587c.544-.552 1.197-.84 1.87-.84.678 0 1.324.288 1.855.846l2.871 2.87c1.11 1.11 1.117 2.623.014 3.773-.222.235-.45.464-.68.679-.329.316-.638.613-.907.935a.899.899 0 0 1-.027.026c-.814.889-1.856 1.34-3.1 1.34-.108 0-.222-.01-.336-.016-1.816-.114-3.437-.792-4.64-1.364zm.7-1.486c1.068.512 2.5 1.11 4.034 1.21.08.007.155.007.235.007.78 0 1.372-.247 1.876-.786.323-.384.68-.72 1.016-1.05.222-.215.437-.416.632-.625.498-.517.498-.995.02-1.472l-2.885-2.884c-.161-.168-.397-.356-.679-.356-.289 0-.545.196-.706.356L15.4 25.32c-.417.423-.928.511-1.446.254l-.074-.04c-.148-.095-.322-.181-.504-.276-.215-.107-.437-.213-.652-.356-1.688-1.07-3.215-2.46-4.667-4.25-.814-1.02-1.338-1.881-1.715-2.788l-.02-.052c-.108-.324-.195-.816.296-1.307l.033-.033c.451-.404.868-.826 1.305-1.27.148-.157.296-.303.45-.458.169-.175.377-.437.377-.726s-.202-.551-.376-.727l-1.426-1.424a27.832 27.832 0 0 1-.498-.505 31.8 31.8 0 0 0-.941-.935c-.168-.167-.41-.35-.7-.35-.302 0-.558.19-.72.344l-1.76 1.762c-.431.429-.66.914-.707 1.492-.08.942.1 1.936.578 3.22.787 2.118 1.97 4.094 3.74 6.219 2.151 2.57 4.733 4.592 7.672 6.017zm7.99-20.826a.873.873 0 1 1 .002 1.747.873.873 0 0 1-.002-1.747zm3.114 0a.873.873 0 1 1 .001 1.747.873.873 0 0 1-.001-1.747zm-6.227 0a.873.873 0 1 1 .001 1.747.873.873 0 0 1-.001-1.747z"/></g><g><path fill="#ffb400" d="M19.603 18.028c.87.222 1.766.336 2.675.336 5.517 0 10.003-4.12 10.003-9.184 0-5.062-4.486-9.183-10.003-9.183-5.518 0-10.004 4.115-10.004 9.183 0 1.942.676 3.84 1.909 5.4-.234.462-.558.84-.96 1.108a1.1 1.1 0 0 0-.449 1.15c.098.443.442.766.877.834.85.12 2.499.187 4.037-.773.377-.236.5-.74.273-1.13a.778.778 0 0 0-1.09-.283 4.12 4.12 0 0 1-1.72.579c.298-.39.532-.84.713-1.345a.857.857 0 0 0-.162-.847c-1.201-1.352-1.837-2.971-1.837-4.7 0-4.154 3.771-7.536 8.413-7.536 4.641 0 8.413 3.382 8.413 7.536 0 4.155-3.772 7.536-8.413 7.536a9.39 9.39 0 0 1-2.298-.282.795.795 0 0 0-.961.606.824.824 0 0 0 .584.995z"/></g></g></svg>