<svg xmlns="http://www.w3.org/2000/svg" width="31" height="28" viewBox="0 0 31 28"><g><g><path d="M31 3.049v10.75c0 1.663-1.374 3.015-3.064 3.015h-.553v5.085c0 .21-.131.399-.33.474a.522.522 0 0 1-.569-.132l-2.717-2.942v.058c0 1.662-1.375 3.014-3.064 3.014l-8.59.034-5.014 5.429a.522.522 0 0 1-.568.132.51.51 0 0 1-.331-.475v-5.084H3.064C1.374 22.407 0 21.055 0 19.392V8.642C0 6.98 1.374 5.629 3.064 5.629l4.17-.009V3.014c0-1.663 1.374-3.015 3.063-3.015l17.64.035C29.627.034 31 1.387 31 3.05zm-8.267 5.557c0-1.102-.91-1.998-2.03-1.998L7.75 6.635H7.75l-4.685.009c-1.12 0-2.032.896-2.032 1.999V19.39c0 1.102.911 1.998 2.03 1.998h3.654c.285 0 .516.228.516.508v4.279l4.268-4.62a.522.522 0 0 1 .38-.167l8.82-.035c1.121 0 2.032-.897 2.032-1.998zm7.234 5.193V3.049c0-1.102-.91-1.999-2.03-1.999h-.001l-17.64-.035c-1.119 0-2.03.896-2.03 1.998v2.603l12.436-.024c1.69 0 3.065 1.351 3.065 3.015v9.18l2.583 2.796v-4.278c0-.28.23-.509.516-.509h1.07c1.12 0 2.03-.896 2.03-1.997z"/></g><g><path fill="#ffb400" d="M4.65 11.185c0-.28.23-.509.517-.509h6.716c.286 0 .517.228.517.509 0 .28-.231.508-.517.508H5.167a.513.513 0 0 1-.517-.508zm14.467 3.05c0 .28-.231.508-.517.508H5.167a.512.512 0 0 1-.517-.508c0-.28.23-.508.517-.508H18.6c.286 0 .517.228.517.508zm0 3.05c0 .282-.231.51-.517.51H5.167a.512.512 0 0 1-.517-.51c0-.28.23-.508.517-.508H18.6c.286 0 .517.228.517.509z"/></g></g></svg>